<svg width="35" height="35" viewBox="0 0 35 35" fill="none" xmlns="http://www.w3.org/2000/svg">
<path fill-rule="evenodd" clip-rule="evenodd" d="M11.9147 7.56993C12.3572 7.52369 12.8061 7.5 13.2604 7.5C19.3362 7.5 24.4576 11.7372 26.0263 17.5173C26.1518 17.5092 26.2781 17.5039 26.4051 17.5015C26.3535 17.5006 26.3018 17.5001 26.25 17.5001L26.2081 17.5002L26.208 17.5H28.125H28.2002V17.4994C30.5818 17.4592 32.5 15.5161 32.5 13.125C32.5 10.7088 30.5412 8.75 28.125 8.75C27.3137 8.75 26.554 8.97082 25.9027 9.35563C25.9008 8.65721 25.7947 7.98329 25.5992 7.34856C24.6252 4.52683 21.9459 2.5 18.7931 2.5C15.5586 2.5 12.8223 4.63345 11.9147 7.56993ZM31.4708 19.1323C33.6077 20.7198 35 23.3163 35 26.25C35 31.0825 31.222 35 26.5616 35C26.4573 35 26.3534 34.998 26.25 34.9941V35H13.4589V34.9985C13.3928 34.9995 13.3267 35 13.2604 35C5.93686 35 0 28.8439 0 21.25C0 15.1179 3.87117 9.92337 9.21765 8.15071C9.95863 3.53008 13.9636 0 18.7931 0C22.9367 0 26.4734 2.59855 27.8624 6.25492C27.9495 6.25165 28.037 6.25 28.125 6.25C31.9219 6.25 35 9.32804 35 13.125C35 15.7074 33.5762 17.9572 31.4708 19.1323ZM26.25 32.5H13.4589H13.315V32.4999L13.2604 32.5C7.40224 32.5 2.5 27.5494 2.5 21.25C2.5 14.9506 7.40224 10 13.2604 10C18.2298 10 22.5114 13.5626 23.6961 18.4889L23.6998 18.4874C23.8671 19.1709 23.9738 19.8796 24.0135 20.6068C24.7924 20.2165 25.659 20 26.5616 20C29.7566 20 32.5 22.712 32.5 26.25C32.5 29.7632 29.7949 32.4619 26.6287 32.4996V32.5H26.25Z" fill="white"/>
</svg>
